<?xml version="1.0" encoding="UTF-8" standalone="no"?>
<svg
   xmlns:dc="http://purl.org/dc/elements/1.1/"
   xmlns:cc="http://creativecommons.org/ns#"
   xmlns:rdf="http://www.w3.org/1999/02/22-rdf-syntax-ns#"
   xmlns:svg="http://www.w3.org/2000/svg"
   xmlns="http://www.w3.org/2000/svg"
   xmlns:sodipodi="http://sodipodi.sourceforge.net/DTD/sodipodi-0.dtd"
   xmlns:inkscape="http://www.inkscape.org/namespaces/inkscape"
   width="629.17"
   height="629.17"
   viewBox="0 0 629.1734 502.04477"
   version="1.1"
   id="svg9561"
   sodipodi:docname="minhoteca.svg"
   inkscape:version="0.92.4 (5da689c313, 2019-01-14)">
  <metadata
     id="metadata9567">
    <rdf:RDF>
      <cc:Work
         rdf:about="">
        <dc:format>image/svg+xml</dc:format>
        <dc:type
           rdf:resource="http://purl.org/dc/dcmitype/StillImage" />
        <dc:title />
      </cc:Work>
    </rdf:RDF>
  </metadata>
  <defs
     id="defs9565">
    <filter
       style="color-interpolation-filters:sRGB;"
       inkscape:label="Blur"
       id="filter863">
      <feGaussianBlur
         stdDeviation="2.7 2.6"
         result="blur"
         id="feGaussianBlur861" />
    </filter>
    <filter
       inkscape:label="Button"
       inkscape:menu="Bevels"
       inkscape:menu-tooltip="Soft bevel, slightly depressed middle"
       style="color-interpolation-filters:sRGB;"
       id="filter979">
      <feGaussianBlur
         stdDeviation="2.3"
         in="SourceAlpha"
         result="result0"
         id="feGaussianBlur953" />
      <feMorphology
         in="SourceAlpha"
         radius="6.6"
         result="result1"
         id="feMorphology955" />
      <feGaussianBlur
         stdDeviation="8.9"
         in="result1"
         id="feGaussianBlur957" />
      <feColorMatrix
         values="1 0 0 0 0 0 1 0 0 0 0 0 1 0 0 0 0 0 0.3 0"
         result="result91"
         id="feColorMatrix959" />
      <feComposite
         in="result0"
         operator="out"
         result="result2"
         in2="result91"
         id="feComposite961" />
      <feGaussianBlur
         stdDeviation="1.7"
         result="result4"
         id="feGaussianBlur963" />
      <feDiffuseLighting
         surfaceScale="10"
         id="feDiffuseLighting967">
        <feDistantLight
           azimuth="225"
           elevation="45"
           id="feDistantLight965" />
      </feDiffuseLighting>
      <feBlend
         in2="SourceGraphic"
         mode="multiply"
         id="feBlend969" />
      <feComposite
         in2="SourceAlpha"
         operator="in"
         result="result3"
         id="feComposite971" />
      <feSpecularLighting
         in="result4"
         surfaceScale="5"
         specularExponent="17.9"
         id="feSpecularLighting975">
        <feDistantLight
           azimuth="225"
           elevation="45"
           id="feDistantLight973" />
      </feSpecularLighting>
      <feComposite
         in2="result3"
         operator="atop"
         id="feComposite977" />
    </filter>
    <filter
       inkscape:label="Drop Shadow"
       inkscape:menu="Bumps"
       inkscape:menu-tooltip="Two types of lighting emboss effect"
       style="color-interpolation-filters:sRGB;"
       id="filter997">
      <feColorMatrix
         result="result2"
         type="luminanceToAlpha"
         in="SourceGraphic"
         id="feColorMatrix981" />
      <feSpecularLighting
         specularConstant="0.5"
         surfaceScale="-15"
         specularExponent="10"
         result="result10"
         id="feSpecularLighting985">
        <feDistantLight
           elevation="20"
           azimuth="225"
           id="feDistantLight983" />
      </feSpecularLighting>
      <feDiffuseLighting
         diffuseConstant="0.5"
         surfaceScale="15"
         id="feDiffuseLighting989">
        <feDistantLight
           azimuth="225"
           elevation="20"
           id="feDistantLight987" />
      </feDiffuseLighting>
      <feComposite
         result="result11"
         in2="result10"
         operator="arithmetic"
         k2="0.5"
         k3="0.5"
         id="feComposite991" />
      <feComposite
         in="result11"
         result="result9"
         operator="arithmetic"
         k2="1"
         k3="1"
         in2="SourceGraphic"
         id="feComposite993" />
      <feComposite
         in2="SourceGraphic"
         operator="in"
         in="result9"
         id="feComposite995"
         result="fbSourceGraphic" />
      <feColorMatrix
         result="fbSourceGraphicAlpha"
         in="fbSourceGraphic"
         values="0 0 0 -1 0 0 0 0 -1 0 0 0 0 -1 0 0 0 0 1 0"
         id="feColorMatrix1183" />
      <feFlood
         id="feFlood1185"
         flood-opacity="0.498039"
         flood-color="rgb(0,0,0)"
         result="flood"
         in="fbSourceGraphic" />
      <feComposite
         in2="fbSourceGraphic"
         id="feComposite1187"
         in="flood"
         operator="in"
         result="composite1" />
      <feGaussianBlur
         id="feGaussianBlur1189"
         in="composite1"
         stdDeviation="5.46448"
         result="blur" />
      <feOffset
         id="feOffset1191"
         dx="-10.9"
         dy="10.7"
         result="offset" />
      <feComposite
         in2="offset"
         id="feComposite1193"
         in="fbSourceGraphic"
         operator="over"
         result="fbSourceGraphic" />
      <feColorMatrix
         result="fbSourceGraphicAlpha"
         in="fbSourceGraphic"
         values="0 0 0 -1 0 0 0 0 -1 0 0 0 0 -1 0 0 0 0 1 0"
         id="feColorMatrix1195" />
      <feFlood
         id="feFlood1197"
         flood-opacity="0.498039"
         flood-color="rgb(0,0,0)"
         result="flood"
         in="fbSourceGraphic" />
      <feComposite
         in2="fbSourceGraphic"
         id="feComposite1199"
         in="flood"
         operator="in"
         result="composite1" />
      <feGaussianBlur
         id="feGaussianBlur1201"
         in="composite1"
         stdDeviation="5.5"
         result="blur" />
      <feOffset
         id="feOffset1203"
         dx="-10.9"
         dy="10.7"
         result="offset" />
      <feComposite
         in2="offset"
         id="feComposite1205"
         in="fbSourceGraphic"
         operator="over"
         result="composite2" />
    </filter>
  </defs>
  <sodipodi:namedview
     pagecolor="#ffffff"
     bordercolor="#666666"
     borderopacity="1"
     objecttolerance="10"
     gridtolerance="10"
     guidetolerance="10"
     inkscape:pageopacity="0"
     inkscape:pageshadow="2"
     inkscape:window-width="1366"
     inkscape:window-height="718"
     id="namedview9563"
     showgrid="false"
     inkscape:zoom="0.75019472"
     inkscape:cx="208.90531"
     inkscape:cy="273.85991"
     inkscape:window-x="0"
     inkscape:window-y="26"
     inkscape:window-maximized="1"
     inkscape:current-layer="layer2" />
  <g
     inkscape:groupmode="layer"
     id="layer1"
     inkscape:label="Layer 1"
     style="display:inline">
    <g
       id="g927"
       transform="translate(0,-56.000307)">
      <path
         d="m 403.32108,204.82694 c -48.502,34.166 -49.078,162.08 -106.16,160.03 -31.598,-10.726 -49.341,-27.033 -85.456,-23.448 -37.083,5.2308 -57.253,40.694 -75.447,69.454 -15.918,21.229 -38.591992,45.392 -67.599992,41.908 -24.898,-7.9206 -25.407,-37.669 1.7419,-56.969 27.1489,-19.3 -12.039,-41.299 -36.962,-7.2074 -24.9230009,34.0916 -13.449,64.656 12.649,89.459 21.4,14.601 52.172,9.3762 75.411992,-9.8425 23.24,-19.2187 62.604,-62.555 107.66,-69.101 29.098,-1.8897 46.241,25.533 62.205,45.233 18.364,21.853 50.117,26.523 75.355,14.585 43.161,-18.393 71.248,-58.723 97.405,-95.798 28.641,-33.229 61.634,-132.77 58.468,-165.92 -26.364,-23.203 -77.159,22.533 -119.28,7.6151 z"
         id="path9491"
         inkscape:connector-curvature="0"
         style="fill:#e9c6af;stroke:#000000;stroke-width:7.19999981" />
      <path
         sodipodi:nodetypes="csssc"
         d="m 510.34108,240.93694 c 48.221,-10.584 103.86829,-40.08285 100.50203,-96.25993 C 606.64968,74.695685 564.6721,15.752791 459.44208,14.062851 357.90564,12.432228 320.76672,105.36294 327.87001,167.11898 c 3.27178,28.44479 19.76007,62.29696 66.08507,72.98896"
         id="path9493"
         inkscape:connector-curvature="0"
         style="fill:#e9c6af;fill-rule:evenodd;stroke:#000000;stroke-width:7.19999981;stroke-linecap:round" />
      <g
         transform="translate(39.993989,-2.6691043)"
         id="g9605">
        <path
           style="fill-rule:evenodd;stroke:#000000;stroke-width:7.19999981;stroke-linecap:round"
           inkscape:connector-curvature="0"
           id="path9503"
           d="m 405.74284,102.89106 c 0.8344,14.96776 -10.62238,27.7773 -25.59014,28.6117 -14.96776,0.8344 -27.77731,-10.62238 -28.61171,-25.59015 -0.83439,-14.967756 10.62239,-27.777298 25.59015,-28.611697 14.96776,-0.834399 27.7773,10.622383 28.6117,25.590147 z" />
        <path
           style="fill:#ffffff;fill-rule:evenodd;stroke:#000000;stroke-width:7.19999981;stroke-linecap:round"
           inkscape:connector-curvature="0"
           id="path9505"
           d="m 397.94266,114.87038 c 0.41719,7.48368 -5.31132,13.88816 -12.7946,14.30532 -7.48328,0.41717 -13.88816,-5.31132 -14.30533,-12.7946 -0.41716,-7.48328 5.31132,-13.88816 12.7946,-14.30532 7.48328,-0.41717 13.88816,5.31132 14.30533,12.7946 z" />
      </g>
      <g
         transform="translate(-30.654719,14.659824)"
         id="g9609">
        <path
           style="fill-rule:evenodd;stroke:#000000;stroke-width:7.19999981;stroke-linecap:round"
           inkscape:connector-curvature="0"
           id="path9507"
           d="m 592.64278,92.475319 c 0.8344,14.967761 -10.62238,27.777301 -25.59014,28.611701 -14.96776,0.8344 -27.77731,-10.62238 -28.61171,-25.590143 -0.83439,-14.967761 10.62239,-27.777303 25.59015,-28.611702 14.96776,-0.834399 27.7773,10.622383 28.6117,25.590144 z" />
        <path
           style="fill:#ffffff;fill-rule:evenodd;stroke:#000000;stroke-width:7.19999981;stroke-linecap:round"
           inkscape:connector-curvature="0"
           id="path9509"
           d="m 574.6426,106.42169 c 0.41719,7.48368 -5.31132,13.88815 -12.7946,14.30532 -7.48328,0.41717 -13.88816,-5.31132 -14.30533,-12.7946 -0.41716,-7.48328 5.31132,-13.888159 12.7946,-14.305325 7.48328,-0.417166 13.88816,5.311319 14.30533,12.794605 z" />
      </g>
      <path
         sodipodi:nodetypes="csc"
         d="m 367.43108,168.32694 c 13.22909,40.49898 50.58385,50.56312 85.41808,52.26997 66.9689,3.28142 91.50394,-25.37367 107.23898,-48.576"
         id="path9513"
         inkscape:connector-curvature="0"
         style="fill:#e9c6af;fill-rule:evenodd;stroke:#000000;stroke-width:7.19999981;stroke-linecap:round" />
      <path
         style="fill:#e9c6af;fill-rule:evenodd;stroke:#000000;stroke-width:7.19999981;stroke-linecap:round"
         inkscape:connector-curvature="0"
         id="path9519"
         d="m 548.55089,285.60743 c -0.34014,0.0191 -0.65802,0.0626 -0.99485,0.13803 -5.3892,1.2075 -8.1936,9.2312 -6.2399,17.951 0.84084,3.7528 2.4339,7.0326 4.3924,9.4392 -4.7429,5.4583 -7.6709,15.315 -7.1763,26.439 0.74123,16.668 10.229,29.876 19.291,27.921 10.431,-2.2513 17.085,-14.302 15.424,-30.903 -1.8831,-18.811 -6.3761,-25.273 -12.284,-27.231 0.65889,-2.9371 0.67326,-6.4346 -0.13346,-10.035 -1.8316,-8.175 -7.1761,-14.012 -12.278,-13.718 z" />
      <path
         style="fill:#e9c6af;fill-rule:evenodd;stroke:#000000;stroke-width:7.19999981;stroke-linecap:round"
         inkscape:connector-curvature="0"
         id="path9521"
         d="m 325.96089,263.57743 c 0.34049,-0.0111 0.66098,0.004 1.0032,0.0492 5.4751,0.72433 8.9807,8.4675 7.8087,17.326 -0.50439,3.8127 -1.8,7.2209 -3.5372,9.7918 5.2087,5.0157 9.0001,14.574 9.4948,25.697 0.74124,16.668 -7.5365,30.666 -16.736,29.523 -10.589,-1.3166 -18.288,-12.729 -18.106,-29.412 0.2059,-18.904 4.1075,-25.74 9.8188,-28.214 -0.91701,-2.867 -1.2418,-6.3495 -0.75784,-10.007 1.0987,-8.3053 5.904,-14.594 11.012,-14.754 z" />
      <path
         style="fill:#ffffff;fill-rule:evenodd;stroke:#000000;stroke-width:4.58690023;stroke-linecap:round"
         inkscape:connector-curvature="0"
         id="path9523"
         d="m 521.15089,259.14743 c -25.142,8.3417 -47.735,24.341 -74.63,26.842 -4.2538,0.92418 -10.689,-0.93861 -8.8689,5.8954 l -10.338,112.21 c 18.331,3.3956 38.515,1.4904 53.394,-10.511 5.7605,-2.4364 13.489,-5.672 12.413,-13.14 9.2046,-40.354 19.877,-81.313 28.031,-121.29 z" />
      <path
         style="fill:#ffffff;fill-rule:evenodd;stroke:#000000;stroke-width:4.58690023;stroke-linecap:round"
         inkscape:connector-curvature="0"
         id="path9525"
         d="m 362.40089,244.22743 c 23.055,13.045 42.128,33.111 68.033,40.765 3.9949,1.7292 10.669,1.1458 7.5617,7.4989 l -11.552,112.09 c -18.642,-0.21264 -38.076,-5.9844 -50.354,-20.637 -5.1807,-3.5042 -12.137,-8.173 -9.6385,-15.292 -1.2286,-41.372 -3.7807,-83.622 -4.0502,-124.43 z" />
      <path
         style="fill:#ffffff;fill-rule:evenodd;stroke:#000000;stroke-width:4.58690023;stroke-linecap:round"
         inkscape:connector-curvature="0"
         id="path9527"
         d="m 523.28089,265.35743 c -25.142,8.3417 -47.735,24.341 -74.63,26.842 -4.2538,0.92417 -10.689,-0.93861 -8.8689,5.8954 l -10.338,112.21 c 18.331,3.3956 38.515,1.4904 53.394,-10.511 5.7604,-2.4364 13.489,-5.672 12.413,-13.14 9.2046,-40.354 19.877,-81.313 28.031,-121.29 z" />
      <path
         style="fill:#ffffff;fill-rule:evenodd;stroke:#000000;stroke-width:4.58690023;stroke-linecap:round"
         inkscape:connector-curvature="0"
         id="path9529"
         d="m 359.11089,249.90743 c 23.055,13.045 42.128,33.111 68.033,40.765 3.9949,1.7292 10.669,1.1458 7.5617,7.4989 l -11.552,112.09 c -18.642,-0.21264 -38.076,-5.9843 -50.354,-20.637 -5.1807,-3.5042 -12.137,-8.173 -9.6385,-15.292 -1.2286,-41.372 -3.7807,-83.622 -4.0502,-124.43 z" />
      <path
         style="fill:#ffffff;fill-rule:evenodd;stroke:#000000;stroke-width:4.58690023;stroke-linecap:round"
         inkscape:connector-curvature="0"
         id="path9531"
         d="m 524.04089,271.08743 c -25.142,8.3417 -47.735,24.341 -74.63,26.842 -4.2538,0.92418 -10.689,-0.93861 -8.8689,5.8954 l -10.338,112.21 c 18.331,3.3956 38.515,1.4904 53.394,-10.511 5.7604,-2.4364 13.489,-5.672 12.413,-13.14 9.2046,-40.354 19.877,-81.313 28.031,-121.29 z" />
      <path
         style="fill:#ffffff;fill-rule:evenodd;stroke:#000000;stroke-width:4.58690023;stroke-linecap:round"
         inkscape:connector-curvature="0"
         id="path9533"
         d="m 357.25089,255.37743 c 23.055,13.045 42.128,33.111 68.033,40.765 3.9949,1.7292 10.669,1.1458 7.5617,7.4989 l -11.552,112.09 c -18.642,-0.21263 -38.076,-5.9844 -50.354,-20.637 -5.1807,-3.5042 -12.137,-8.173 -9.6385,-15.292 -1.2286,-41.372 -3.7807,-83.622 -4.0502,-124.43 z" />
      <path
         style="fill:#0094ec;fill-rule:evenodd;stroke:#000000;stroke-width:9.17380047;stroke-linecap:round"
         inkscape:connector-curvature="0"
         id="path9535"
         d="m 426.65431,297.88377 25.36251,2.4752 -13.26036,135.87447 -25.36251,-2.47519 z" />
      <path
         style="fill:#00c8fc;fill-rule:evenodd;stroke:#000000;stroke-width:7.19999981;stroke-linecap:round"
         inkscape:connector-curvature="0"
         id="path9537"
         d="m 451.75089,300.20743 -12.612,135.85 c 49.458,8.5958 51.305,-0.83572 83.995,-17.975 l 34.295,-146.02 c -16.988,-9.5899 -58.374,30.503 -105.68,28.144 z" />
      <path
         style="fill:#00c8fc;fill-rule:evenodd;stroke:#000000;stroke-width:7.19999981;stroke-linecap:round"
         inkscape:connector-curvature="0"
         id="path9539"
         d="m 428.29089,297.72743 -13.893,135.73 c -50.187,-1.129 -50.175,-10.739 -78.935,-33.876 l -5.4157,-149.9 c 18.522,-6.1244 51.375,41.214 98.243,48.046 z" />
      <g
         style="fill:#e9c6af;fill-rule:evenodd;stroke:#000000;stroke-width:7.19999981;stroke-linecap:round"
         id="g9547"
         transform="matrix(0.99901,-0.04443,0.04443,0.99901,371.38089,45.437437)">
        <path
           style="fill:#e9c6af"
           inkscape:connector-curvature="0"
           id="path9541"
           d="m 172.07,284.71 c -3.9226,-2.9559 -11.6,-3.0578 -19.917,-3.0578 -12.487,0 -15.662,5.5866 -15.125,10.357 0.94001,8.3577 2.6384,9.6429 15.125,9.6429 9.4408,0 17.024,-0.51985 20.538,-4.7026" />
        <path
           style="fill:#e9c6af"
           inkscape:connector-curvature="0"
           id="path9543"
           d="m 163.02,315.21 c -12.487,0 -26.642,0.52349 -26.344,8.9286 0.29048,8.1815 3.281,6.7196 15.629,8.5714 6.8187,1.0225 15.941,0.13152 21.562,-3.5835" />
        <path
           style="fill:#e9c6af"
           inkscape:connector-curvature="0"
           id="path9545"
           d="m 172.67,297.65 c -3.8595,-3.2916 -11.309,0.41643 -19.824,0.41643 -12.487,0 -22.951,1.2629 -22.594,10 0.22557,5.5182 10.107,7.8571 22.594,7.8571 8.645,0 16.502,-1.7976 20.312,-4.528" />
      </g>
      <g
         style="fill:#e9c6af;fill-rule:evenodd;stroke:#000000;stroke-width:7.19999981;stroke-linecap:round"
         id="g9555"
         transform="matrix(-0.99901,0.04443,0.04443,0.99901,481.11089,8.6264341)">
        <path
           style="fill:#e9c6af"
           inkscape:connector-curvature="0"
           id="path9549"
           d="m 172.07,284.71 c -3.9226,-2.9559 -11.6,-3.0578 -19.917,-3.0578 -12.487,0 -15.662,5.5866 -15.125,10.357 0.94001,8.3577 2.6384,9.6429 15.125,9.6429 9.4408,0 17.024,-0.51985 20.538,-4.7026" />
        <path
           style="fill:#e9c6af"
           inkscape:connector-curvature="0"
           id="path9551"
           d="m 163.02,315.21 c -12.487,0 -26.642,0.52349 -26.344,8.9286 0.29048,8.1815 3.281,6.7196 15.629,8.5714 6.8187,1.0225 13.416,0.63659 19.037,-3.0785" />
        <path
           style="fill:#e9c6af"
           inkscape:connector-curvature="0"
           id="path9553"
           d="m 172.67,297.65 c -3.8595,-3.2916 -11.309,0.41643 -19.824,0.41643 -12.487,0 -22.951,1.2629 -22.594,10 0.22557,5.5182 10.107,7.8571 22.594,7.8571 8.645,0 16.502,-1.7976 20.312,-4.528" />
      </g>
    </g>
  </g>
  <g
     inkscape:groupmode="layer"
     id="layer2"
     inkscape:label="Layer 2"
     style="display:inline" />
</svg>
